<?xml version="1.0" encoding="utf-8"?>
<!-- Generator: Adobe Illustrator 17.1.0, SVG Export Plug-In . SVG Version: 6.00 Build 0)  -->
<!DOCTYPE svg PUBLIC "-//W3C//DTD SVG 1.1//EN" "http://www.w3.org/Graphics/SVG/1.1/DTD/svg11.dtd">
<svg version="1.1" xmlns="http://www.w3.org/2000/svg" xmlns:xlink="http://www.w3.org/1999/xlink" x="0px" y="0px"
	 viewBox="0 0 259.2 102.5" enable-background="new 0 0 259.2 102.5" xml:space="preserve">
<g id="Layer_1">
</g>
<g id="Layer_2">
	<g>
		<path fill="#090607" d="M54.1,21.8c0-0.6,0.5-1.1,1.1-1.1h14.1c7.4,0,13.4,6,13.4,13.3c0,7.4-6.1,13.5-13.4,13.5h-7.5v14.1
			c0,0.6-0.5,1.1-1.1,1.1h-5.5c-0.7,0-1.1-0.5-1.1-1.1V21.8z M68.9,40.1c3.4,0,6.2-2.7,6.2-6.2c0-3.3-2.8-5.8-6.2-5.8h-7v12.1H68.9z
			"/>
		<path fill="#090607" d="M91.8,47.5c2.4,0,4.4,0.7,4.4,0.7c0.1-3.1-0.9-4.1-3.1-4.1c-2.2,0-5.3,0.5-6.7,0.9
			c-0.8,0.2-1.3-0.3-1.4-1.1l-0.5-3.1c-0.2-0.9,0.3-1.3,0.8-1.5c0.5-0.2,4.3-1.1,8.2-1.1c7.5,0,9.2,3.9,9.2,10.4v13
			c0,0.6-0.5,1.1-1.1,1.1h-2.2c-0.4,0-0.7-0.2-1-0.8l-0.7-1.6c-1.4,1.3-3.6,3.1-7.3,3.1c-4.8,0-8.1-3.1-8.1-8.2
			C82.2,50.8,85.6,47.5,91.8,47.5z M91.9,58.1c1.9,0,3.8-1.6,4.1-2.3v-3.3c0,0-1.6-0.7-3.4-0.7c-2.3,0-3.9,1.3-3.9,3.2
			C88.8,56.8,90,58.1,91.9,58.1z"/>
		<path fill="#090607" d="M105.5,59.8l1.6-3.2c0.2-0.6,0.8-0.7,1.4-0.4c0,0,2.7,1.4,5.5,1.4c1.2,0,2-0.5,2-1.5c0-1.1-0.8-1.7-4-3
			c-4.6-1.8-6.8-4.3-6.8-7.9c0-3.7,2.7-7.1,8.8-7.1c3.5,0,6.1,1,7.4,1.9c0.5,0.4,0.8,1,0.5,1.6l-1.5,3.1c-0.3,0.5-1,0.6-1.4,0.4
			c0,0-2.7-1.3-5-1.3c-1.4,0-2,0.6-2,1.4c0,1.1,1.1,1.4,3.3,2.3c4.6,1.8,8.1,3.8,8.1,8.5c0,4-3.5,7.3-9.5,7.3c-4,0-6.7-1.3-8-2.2
			C105.5,60.7,105.3,60.2,105.5,59.8z"/>
		<path fill="#090607" d="M128.4,44.9h-2c-0.6,0-1.1-0.5-1.1-1.1v-4c0-0.7,0.5-1.1,1.1-1.1h2V32c0-0.6,0.5-1.1,1.1-1.1l4.9-0.1
			c0.6,0,1.1,0.5,1.1,1.1v6.7h5.3c0.7,0,1.1,0.5,1.1,1.1v4c0,0.6-0.5,1.1-1.1,1.1h-5.3v9.6c0,1.7,0.9,1.9,1.9,1.9
			c1,0,2.3-0.4,2.9-0.7c0.7-0.2,1.1,0.1,1.3,0.7l1.2,3.8c0.2,0.6-0.1,1.2-0.7,1.4c-0.3,0.2-4.2,1.6-7.1,1.6c-4.6,0-6.7-2.9-6.7-7.7
			V44.9z"/>
		<path fill="#090607" d="M148.8,44.9h-2c-0.6,0-1.1-0.5-1.1-1.1v-4c0-0.7,0.5-1.1,1.1-1.1h2V32c0-0.6,0.5-1.1,1.1-1.1l4.9-0.1
			c0.6,0,1.1,0.5,1.1,1.1v6.7h5.3c0.7,0,1.1,0.5,1.1,1.1v4c0,0.6-0.5,1.1-1.1,1.1H156v9.6c0,1.7,0.9,1.9,1.9,1.9
			c1,0,2.3-0.4,2.9-0.7c0.7-0.2,1.1,0.1,1.3,0.7l1.2,3.8c0.2,0.6-0.1,1.2-0.7,1.4c-0.3,0.2-4.2,1.6-7.1,1.6c-4.6,0-6.7-2.9-6.7-7.7
			V44.9z"/>
		<path fill="#090607" d="M166.8,21.8c0-0.6,0.5-1.1,1.1-1.1h5c0.6,0,1.1,0.5,1.1,1.1v39.7c0,0.6-0.5,1.1-1.1,1.1h-5
			c-0.6,0-1.1-0.5-1.1-1.1V21.8z"/>
		<path fill="#090607" d="M189,38c6.2,0,11.2,4.7,11.2,11.2c0,0.4-0.1,1.2-0.1,1.6c-0.1,0.6-0.6,1-1.1,1h-15.4
			c0.2,2.5,2.3,5.2,5.8,5.2c1.9,0,3.6-0.7,4.7-1.5c0.6-0.4,1.1-0.5,1.6,0l2.5,2.8c0.4,0.4,0.5,1.1-0.1,1.6c-2,1.9-5,3.3-8.9,3.3
			c-7.2,0-12.3-5.7-12.3-12.6C176.8,43.9,181.9,38,189,38z M193.2,47.6c-0.2-2.2-2.1-4.1-4.4-4.1c-2.4,0-4.4,1.8-4.7,4.1H193.2z"/>
	</g>
	<g>
		<path d="M85.4,75.4c0.9,0,1.7,0.3,1.7,0.3c0-1.3-0.2-1.8-1.3-1.8c-1,0-1.9,0.3-2.4,0.4C83.2,74.2,83,74,83,73.8L82.8,73
			c-0.1-0.3,0.1-0.4,0.3-0.5c0.1-0.1,1.3-0.5,2.9-0.5c2.7,0,2.9,1.6,2.9,3.7v4.5c0,0.2-0.2,0.4-0.4,0.4h-0.6c-0.2,0-0.3-0.1-0.4-0.3
			l-0.2-0.6c-0.5,0.4-1.3,1.1-2.6,1.1c-1.6,0-2.7-1.1-2.7-2.8C82.1,76.5,83.3,75.4,85.4,75.4z M85.2,79.4c0.8,0,1.6-0.6,1.9-1V77
			c-0.1-0.1-0.7-0.3-1.5-0.3c-1,0-1.7,0.5-1.7,1.4C83.9,78.8,84.4,79.4,85.2,79.4z"/>
		<path d="M94.6,79.6l0.4-0.8c0.1-0.2,0.3-0.2,0.5-0.1c0,0,0.9,0.5,2,0.5c0.6,0,1-0.3,1-0.7c0-0.6-0.5-0.8-1.6-1.4
			c-1.3-0.6-2.4-1.4-2.4-2.8c0-1,0.9-2.3,2.9-2.3c1.2,0,2.1,0.4,2.5,0.7c0.2,0.1,0.3,0.4,0.2,0.6L99.7,74c-0.1,0.2-0.4,0.3-0.5,0.2
			c0,0-0.9-0.4-1.7-0.4c-0.7,0-0.9,0.3-0.9,0.6c0,0.5,0.5,0.8,1.3,1.1c1.5,0.7,2.8,1.3,2.8,2.9c0,1.3-1.2,2.5-3.1,2.5
			c-1.4,0-2.3-0.5-2.8-0.9C94.6,79.9,94.5,79.7,94.6,79.6z"/>
		<path d="M101.9,67.6c0-0.7,0.5-1.2,1.2-1.2c0.7,0,1.2,0.5,1.2,1.2c0,0.7-0.5,1.2-1.2,1.2C102.4,68.8,101.9,68.3,101.9,67.6z
			 M102.1,72.7c0-0.2,0.2-0.4,0.4-0.4h1.2c0.2,0,0.4,0.2,0.4,0.4v7.6c0,0.2-0.2,0.4-0.4,0.4h-1.2c-0.2,0-0.4-0.2-0.4-0.4V72.7z"/>
		<path d="M106.3,72.7c0-0.2,0.2-0.4,0.4-0.4h0.6c0.2,0,0.3,0.1,0.4,0.3l0.2,0.7c0.2-0.2,1.2-1.2,2.8-1.2c1.2,0,2.1,0.5,2.7,1.3
			c0.2-0.2,1.4-1.3,3-1.3c2.6,0,3.5,1.8,3.5,4v4.2c0,0.2-0.2,0.4-0.4,0.4h-1.2c-0.2,0-0.4-0.2-0.4-0.4V76c0-1.3-0.6-2.1-1.7-2.1
			c-1.3,0-2,0.9-2.2,1c0,0.2,0.1,0.6,0.1,1v4.3c0,0.2-0.2,0.4-0.4,0.4h-1.1c-0.2,0-0.4-0.2-0.4-0.4V76c0-1.3-0.6-2.1-1.8-2.1
			c-1.3,0-2,1-2.1,1.3v5.1c0,0.2-0.2,0.4-0.4,0.4h-1.2c-0.2,0-0.4-0.2-0.4-0.4V72.7z"/>
		<path d="M124,86.6c0,0.2-0.1,0.4-0.4,0.4h-1.2c-0.2,0-0.4-0.2-0.4-0.4V72.7c0-0.2,0.2-0.4,0.4-0.4h0.6c0.2,0,0.3,0.1,0.4,0.3
			l0.2,0.5c0.1-0.1,1-1,2.6-1c2.3,0,4,2,4,4.4c0,2.5-1.8,4.4-4.1,4.4c-1.1,0-1.9-0.5-2.1-0.6V86.6z M125.8,79.1
			c1.4,0,2.4-1.2,2.4-2.6c0-1.4-0.9-2.6-2.3-2.6c-1.2,0-1.8,1-1.9,1.2v3.4C123.9,78.5,124.7,79.1,125.8,79.1z"/>
		<path d="M131.7,66.4c0-0.2,0.2-0.4,0.4-0.4h1.2c0.2,0,0.4,0.2,0.4,0.4v13.9c0,0.2-0.2,0.4-0.4,0.4h-1.2c-0.2,0-0.4-0.2-0.4-0.4
			V66.4z"/>
		<path d="M139.5,72.1c2.2,0,3.9,1.6,3.9,3.9c0,0.1,0,0.4,0,0.6c0,0.2-0.2,0.4-0.4,0.4h-5.7c0.1,1.1,1,2.2,2.4,2.2
			c0.8,0,1.4-0.3,1.9-0.6c0.3-0.1,0.4-0.2,0.6,0l0.6,0.8c0.1,0.2,0.2,0.3,0,0.5c-0.6,0.5-1.7,1-3.1,1c-2.5,0-4.2-2-4.2-4.4
			C135.3,74.1,137,72.1,139.5,72.1z M141.4,75.5c-0.1-1-0.9-1.9-1.9-1.9c-1.1,0-2,0.8-2.1,1.9H141.4z"/>
		<path d="M151,86.6c0,0.2-0.1,0.4-0.4,0.4h-1.2c-0.2,0-0.4-0.2-0.4-0.4V72.7c0-0.2,0.2-0.4,0.4-0.4h0.6c0.2,0,0.3,0.1,0.4,0.3
			l0.2,0.5c0.1-0.1,1-1,2.6-1c2.3,0,4,2,4,4.4c0,2.5-1.8,4.4-4.1,4.4c-1.1,0-1.9-0.5-2.1-0.6V86.6z M152.8,79.1
			c1.4,0,2.4-1.2,2.4-2.6c0-1.4-0.9-2.6-2.3-2.6c-1.2,0-1.8,1-1.9,1.2v3.4C151,78.5,151.7,79.1,152.8,79.1z"/>
		<path d="M161.5,75.4c0.9,0,1.7,0.3,1.7,0.3c0-1.3-0.2-1.8-1.3-1.8c-1,0-1.9,0.3-2.4,0.4c-0.3,0.1-0.4-0.1-0.5-0.3l-0.2-0.8
			c-0.1-0.3,0.1-0.4,0.3-0.5c0.1-0.1,1.3-0.5,2.9-0.5c2.7,0,2.9,1.6,2.9,3.7v4.5c0,0.2-0.2,0.4-0.4,0.4H164c-0.2,0-0.3-0.1-0.4-0.3
			l-0.2-0.6c-0.5,0.4-1.3,1.1-2.6,1.1c-1.6,0-2.7-1.1-2.7-2.8C158.1,76.5,159.4,75.4,161.5,75.4z M161.2,79.4c0.8,0,1.6-0.6,1.9-1
			V77c-0.1-0.1-0.7-0.3-1.5-0.3c-1,0-1.7,0.5-1.7,1.4C160,78.8,160.5,79.4,161.2,79.4z"/>
		<path d="M166.6,79.6l0.4-0.8c0.1-0.2,0.3-0.2,0.5-0.1c0,0,0.9,0.5,2,0.5c0.6,0,1-0.3,1-0.7c0-0.6-0.5-0.8-1.6-1.4
			c-1.3-0.6-2.4-1.4-2.4-2.8c0-1,0.9-2.3,2.9-2.3c1.2,0,2.1,0.4,2.5,0.7c0.2,0.1,0.3,0.4,0.2,0.6l-0.4,0.7c-0.1,0.2-0.4,0.3-0.5,0.2
			c0,0-0.9-0.4-1.7-0.4c-0.7,0-0.9,0.3-0.9,0.6c0,0.5,0.5,0.8,1.3,1.1c1.5,0.7,2.8,1.3,2.8,2.9c0,1.3-1.2,2.5-3.1,2.5
			c-1.4,0-2.3-0.5-2.8-0.9C166.6,79.9,166.5,79.7,166.6,79.6z"/>
		<path d="M174.6,74h-0.9c-0.2,0-0.4-0.2-0.4-0.4v-0.9c0-0.2,0.2-0.4,0.4-0.4h0.9v-2.3c0-0.2,0.2-0.4,0.4-0.4l1.2,0
			c0.2,0,0.4,0.2,0.4,0.4v2.4h2.1c0.2,0,0.4,0.2,0.4,0.4v0.9c0,0.2-0.2,0.4-0.4,0.4h-2.1v4.2c0,0.7,0.3,0.8,0.7,0.8
			c0.4,0,1-0.3,1.3-0.4c0.3-0.1,0.4,0,0.5,0.2l0.4,0.9c0.1,0.2,0,0.4-0.2,0.5c-0.2,0.1-1.4,0.6-2.5,0.6c-1.7,0-2.1-1-2.1-2.5V74z"/>
		<path d="M184.4,72.1c2.2,0,3.9,1.6,3.9,3.9c0,0.1,0,0.4,0,0.6c0,0.2-0.2,0.4-0.4,0.4h-5.7c0.1,1.1,1,2.2,2.4,2.2
			c0.8,0,1.4-0.3,1.9-0.6c0.3-0.1,0.4-0.2,0.6,0l0.6,0.8c0.1,0.2,0.2,0.3,0,0.5c-0.6,0.5-1.7,1-3.1,1c-2.5,0-4.2-2-4.2-4.4
			C180.2,74.1,181.9,72.1,184.4,72.1z M186.3,75.5c-0.1-1-0.9-1.9-1.9-1.9c-1.1,0-2,0.8-2.1,1.9H186.3z"/>
		<path d="M189.8,66.4c0-0.2,0.2-0.4,0.4-0.4h1.2c0.2,0,0.4,0.2,0.4,0.4v6.2c0.2-0.1,0.9-0.5,2-0.5c2.3,0,4.1,2,4.1,4.4
			c0,2.4-1.7,4.4-3.9,4.4c-1.7,0-2.7-1.2-2.7-1.2l-0.2,0.6c-0.1,0.2-0.2,0.4-0.4,0.4h-0.6c-0.2,0-0.4-0.2-0.4-0.4V66.4z M193.8,79.1
			c1.3,0,2.2-1.2,2.2-2.6c0-1.4-1-2.6-2.4-2.6c-1.1,0-1.8,0.5-1.8,0.5v3.4C191.9,78,192.5,79.1,193.8,79.1z"/>
		<path d="M199.3,67.6c0-0.7,0.5-1.2,1.2-1.2c0.7,0,1.2,0.5,1.2,1.2c0,0.7-0.5,1.2-1.2,1.2C199.8,68.8,199.3,68.3,199.3,67.6z
			 M199.5,72.7c0-0.2,0.2-0.4,0.4-0.4h1.2c0.2,0,0.4,0.2,0.4,0.4v7.6c0,0.2-0.2,0.4-0.4,0.4h-1.2c-0.2,0-0.4-0.2-0.4-0.4V72.7z"/>
		<path d="M203.7,72.7c0-0.2,0.2-0.4,0.4-0.4h0.6c0.2,0,0.3,0.1,0.3,0.3l0.3,0.7c0.1-0.2,1.3-1.2,2.9-1.2c2.6,0,3.5,1.8,3.5,4v4.2
			c0,0.2-0.2,0.4-0.4,0.4h-1.2c-0.2,0-0.4-0.2-0.4-0.4V76c0-1.3-0.7-2.1-1.7-2.1c-1.3,0-2.2,1-2.3,1.3v5.1c0,0.3-0.1,0.4-0.5,0.4
			h-1.1c-0.2,0-0.4-0.2-0.4-0.4V72.7z"/>
	</g>
</g>
</svg>
